<svg id="google-icon" xmlns="http://www.w3.org/2000/svg" width="23.641" height="24.123" viewBox="0 0 23.641 24.123">
  <path id="パス_9" data-name="パス 9" d="M142.129,109.227a10.336,10.336,0,0,0-.255-2.466H130.55v4.476H137.2a5.894,5.894,0,0,1-2.466,3.913l-.023.15,3.581,2.774.248.025a11.793,11.793,0,0,0,3.592-8.872" transform="translate(-118.488 -96.897)" fill="#4285f4"/>
  <path id="パス_10" data-name="パス 10" d="M24.7,166.046a11.5,11.5,0,0,0,7.987-2.922l-3.806-2.948a7.139,7.139,0,0,1-4.181,1.206,7.261,7.261,0,0,1-6.862-5.012l-.141.012-3.723,2.881-.049.135A12.053,12.053,0,0,0,24.7,166.046" transform="translate(-12.638 -141.923)" fill="#34a853"/>
  <path id="パス_11" data-name="パス 11" d="M5.2,79.171a7.425,7.425,0,0,1-.4-2.386A7.8,7.8,0,0,1,5.186,74.4l-.007-.16L1.41,71.312l-.123.059a12.036,12.036,0,0,0,0,10.829L5.2,79.171" transform="translate(0 -64.723)" fill="#fbbc05"/>
  <path id="パス_12" data-name="パス 12" d="M24.7,4.664a6.685,6.685,0,0,1,4.664,1.8l3.4-3.324A11.588,11.588,0,0,0,24.7,0,12.053,12.053,0,0,0,13.925,6.647l3.9,3.029A7.291,7.291,0,0,1,24.7,4.664" transform="translate(-12.638)" fill="#eb4335"/>
</svg>
