<svg xmlns="http://www.w3.org/2000/svg" width="33.623" height="26.758" viewBox="0 0 33.623 26.758">
  <path id="ico_home" d="M29.385,16.039V26.05a1.353,1.353,0,0,1-1.335,1.335H20.041V19.376H14.7v8.009H6.694A1.353,1.353,0,0,1,5.359,26.05V16.039a.278.278,0,0,1,.011-.063.278.278,0,0,0,.011-.063L17.372,6.028l11.992,9.886a.286.286,0,0,1,.021.125ZM34.036,14.6l-1.293,1.543a.707.707,0,0,1-.438.229h-.063a.642.642,0,0,1-.438-.146L17.372,4.194,2.94,16.227a.774.774,0,0,1-.5.146A.707.707,0,0,1,2,16.143L.709,14.6a.674.674,0,0,1-.146-.49.609.609,0,0,1,.227-.448l15-12.492a2.585,2.585,0,0,1,3.17,0l5.089,4.254V1.358A.643.643,0,0,1,24.713.69h4a.643.643,0,0,1,.668.668V9.867l4.567,3.8a.607.607,0,0,1,.229.448.674.674,0,0,1-.146.49Z" transform="translate(-0.562 -0.627)" fill="#fff"/>
</svg>
