<svg xmlns="http://www.w3.org/2000/svg" width="25.031" height="25.031" viewBox="0 0 25.031 25.031">
  <path id="ico_plus" d="M25.031,10.808v3.413a1.7,1.7,0,0,1-1.707,1.707h-7.4v7.4a1.7,1.7,0,0,1-1.707,1.707H10.808A1.7,1.7,0,0,1,9.1,23.324v-7.4H1.707a1.646,1.646,0,0,1-1.209-.5A1.645,1.645,0,0,1,0,14.222V10.808A1.646,1.646,0,0,1,.5,9.6a1.646,1.646,0,0,1,1.209-.5H9.1V1.707A1.646,1.646,0,0,1,9.6.5,1.646,1.646,0,0,1,10.809,0h3.413a1.646,1.646,0,0,1,1.209.5,1.646,1.646,0,0,1,.5,1.209V9.1h7.4a1.7,1.7,0,0,1,1.707,1.707Z" fill="#fff"/>
</svg>
