<svg xmlns="http://www.w3.org/2000/svg" width="25.191" height="25.191" viewBox="0 0 25.191 25.191">
  <path id="ico_close" d="M17.813,7.692v2.429A1.21,1.21,0,0,1,16.6,11.335H11.335V16.6a1.21,1.21,0,0,1-1.215,1.215H7.692A1.21,1.21,0,0,1,6.477,16.6V11.335H1.215a1.171,1.171,0,0,1-.86-.354A1.171,1.171,0,0,1,0,10.121V7.692a1.171,1.171,0,0,1,.354-.86,1.171,1.171,0,0,1,.86-.354H6.477V1.215a1.171,1.171,0,0,1,.354-.86A1.171,1.171,0,0,1,7.692,0h2.429a1.171,1.171,0,0,1,.86.354,1.171,1.171,0,0,1,.354.86V6.477H16.6a1.21,1.21,0,0,1,1.215,1.215Z" transform="translate(12.596) rotate(45)" fill="#fff"/>
</svg>
