<svg xmlns="http://www.w3.org/2000/svg" width="65.989" height="62.59" viewBox="0 0 65.989 62.59">
  <path id="ico_cutlery" d="M18.444,35.524,4.045,20.964A13.239,13.239,0,0,1,0,11.257,13.239,13.239,0,0,1,4.045,1.55L28.312,25.656ZM41.9,29.215,36.888,34.23l23.62,23.783-4.854,4.854L32.035,39.083,8.251,62.867,3.236,58.013,37.049,24.361A12.8,12.8,0,0,1,36.4,15.3a19.625,19.625,0,0,1,5.339-9.221A19.509,19.509,0,0,1,52.9.418q6.148-.809,9.949,2.992t2.994,9.949a19.128,19.128,0,0,1-5.823,11.163,19.642,19.642,0,0,1-9.14,5.339,12.6,12.6,0,0,1-8.979-.647Z" transform="translate(0 -0.277)" fill="#fff"/>
</svg>
