<svg id="コンポーネント_1_3" data-name="コンポーネント 1 – 3" xmlns="http://www.w3.org/2000/svg" xmlns:xlink="http://www.w3.org/1999/xlink" width="226.086" height="110.622" viewBox="0 0 226.086 110.622">
  <defs>
    <clipPath id="clip-path">
      <rect id="長方形_41" data-name="長方形 41" width="226.086" height="110.622" fill="#fff"/>
    </clipPath>
  </defs>
  <g id="グループ_1" data-name="グループ 1" clip-path="url(#clip-path)">
    <path id="パス_1" data-name="パス 1" d="M10.874,18.138q1.235,2.929,3.643,9.954a182.358,182.358,0,0,1,6.011,20.474q.277,1.478-1.454,2.175a2.7,2.7,0,0,1-1.792.124A1.393,1.393,0,0,1,16.24,49.7,148.808,148.808,0,0,0,10.821,30.82Q8.457,23.925,7,20.489a1.348,1.348,0,0,0-1.979-.694,29.059,29.059,0,0,0-2.678,1.424q-1.292.77-2.079-1.249-.693-1.757.417-2.4a25.085,25.085,0,0,1,4.876-2.36Q8.8,14.1,10.219,16.762q.189.422.654,1.376" transform="translate(0 8.765)" fill="#fff"/>
    <path id="パス_2" data-name="パス 2" d="M37.422,16a63.063,63.063,0,0,1,2.393,8.672,75.97,75.97,0,0,1,1.979,15.743q0,1.435-1.852,1.888-2.1.517-2.305-1.533a13.858,13.858,0,0,1-6.289,3.648q-5.784,1.423-9.074-.394-2.91-1.668-4.44-6.449-.519-1.637-1.13-4.544A99.54,99.54,0,0,1,15.02,21.847q-.161-1.821,1.935-2.337a2.688,2.688,0,0,1,1.765.114,1.406,1.406,0,0,1,.866,1.29,66.955,66.955,0,0,0,1.359,9.834,50.7,50.7,0,0,0,1.375,5.3q1.072,3.22,3,4.225a6.7,6.7,0,0,0,4.711.178,14.406,14.406,0,0,0,7.062-4.363A102.488,102.488,0,0,0,35.55,25.77a56.109,56.109,0,0,0-2.361-8.3,1.5,1.5,0,0,1,.267-1.568,2.791,2.791,0,0,1,1.5-.92Q36.848,14.52,37.422,16" transform="translate(7.013 8.758)" fill="#fff"/>
    <path id="パス_3" data-name="パス 3" d="M60.888,22.518a77.195,77.195,0,0,1,.227,16.024,2.016,2.016,0,0,1-2.179,1.951,2.409,2.409,0,0,1-1.593-.439,1.421,1.421,0,0,1-.61-1.386,68.166,68.166,0,0,0,.167-9.986,43.565,43.565,0,0,0-.584-5.467q-.561-3.368-2.436-4.652A6.952,6.952,0,0,0,49.173,17.5a13.931,13.931,0,0,0-7.665,3.265q-.224,5.7.016,10.256a65.781,65.781,0,0,0,.963,8.566,1.505,1.505,0,0,1-.461,1.473,2.518,2.518,0,0,1-1.626.659q-1.93.117-2.224-1.4a72.36,72.36,0,0,1-1.061-9.633,77.982,77.982,0,0,1,.327-15.218q.224-1.459,2.2-1.581,2.19-.133,2.123,1.923a13.322,13.322,0,0,1,6.675-2.458q6.006-.365,8.931,2.021,2.74,2.164,3.516,7.152" transform="translate(17.251 7.83)" fill="#fff"/>
    <path id="パス_4" data-name="パス 4" d="M80.88,38.877a1.744,1.744,0,0,1-.825,1.357,14.437,14.437,0,0,1-9.693,1.884q-7.78-.891-10.914-4.668-2.824-3.413-2.309-10A16.167,16.167,0,0,1,61.2,17.29q4.01-4.316,10.677-3.551a29.464,29.464,0,0,1,4.719.821,11.552,11.552,0,0,1,4.265,2.361,1.6,1.6,0,0,1,.547,1.467,2.875,2.875,0,0,1-.86,1.727,1.839,1.839,0,0,1-1.5.718,2.125,2.125,0,0,1-1.018-.632q-1.908-1.716-6.481-2.24A7.491,7.491,0,0,0,65,20.042q-2.5,2.545-3.058,7.863-.918,8.93,8.573,10.016a12.749,12.749,0,0,0,7.825-1.772,1,1,0,0,1,.616-.118,1.99,1.99,0,0,1,1.413,1.006,2.783,2.783,0,0,1,.514,1.838" transform="translate(26.663 8.023)" fill="#fff"/>
    <path id="パス_5" data-name="パス 5" d="M102.223,35.572a49.7,49.7,0,0,1-1.574,6.484,90.721,90.721,0,0,1-3.325,9.573A1.653,1.653,0,0,1,95,52.655a2.756,2.756,0,0,1-1.5-1.093,1.691,1.691,0,0,1-.208-1.757,71.027,71.027,0,0,0,3.143-9.389,50.978,50.978,0,0,0,1.143-5.359,6.987,6.987,0,0,0-.894-5.261,7.357,7.357,0,0,0-4.125-2.677,13.272,13.272,0,0,0-8.815.715q-.541,1.721-1.024,3.556a107.93,107.93,0,0,0-2.7,14.318,1.424,1.424,0,0,1-.954,1.255,2.762,2.762,0,0,1-1.837.013q-1.778-.548-1.567-2.032A135.276,135.276,0,0,1,79.5,26.621a147.056,147.056,0,0,1,5.678-15.962q.605-1.459,2.512-.872a2.743,2.743,0,0,1,1.447,1.03,1.593,1.593,0,0,1,.233,1.573q-1.338,3.556-4.092,10.789a12.558,12.558,0,0,1,7.818-.151q5.872,1.811,7.9,4.81,1.976,2.839,1.228,7.736" transform="translate(35.344 5.664)" fill="#fff"/>
    <path id="パス_6" data-name="パス 6" d="M124.841,58.916a43.433,43.433,0,0,1,.516,7.681,86.115,86.115,0,0,1-.773,12.2q-.13,1.256-2.064,1.257-1.8,0-1.847-1.49l.129-1.536q-3.354,2.748-9.543,2.933a8.854,8.854,0,0,1-5.5-1.536,6.655,6.655,0,0,1-3.009-4.84,11.288,11.288,0,0,1-.129-1.63q0-5.958,6.32-8.518a20.045,20.045,0,0,1,5.028-1.257q2.623-.327,5.2-.605c.144-.032.616-.108,1.419-.234q-.13-.977-.258-1.861-.559-3.725-6.318-3.585a22.609,22.609,0,0,0-7.48,1.908,1.074,1.074,0,0,1-.43.092,1.773,1.773,0,0,1-1.354-.744,2.434,2.434,0,0,1-.624-1.583,1.553,1.553,0,0,1,.989-1.49,22.058,22.058,0,0,1,9.156-2.142q9.286-.372,10.575,6.983m-3.825,5.958a.14.14,0,0,0-.129-.094,5.1,5.1,0,0,0-1.1.3c-.587.2-.939.318-1.054.35q-2.364.279-4.772.6a12.023,12.023,0,0,0-4.685,1.584,4.76,4.76,0,0,0-2.15,4.142q0,.465.043.977.387,2.886,4.127,3.119a11.7,11.7,0,0,0,6.1-1.4q3.094-1.583,3.4-3.259a27.154,27.154,0,0,0,.214-6.33" transform="translate(47.95 30.572)" fill="#fff"/>
    <path id="パス_7" data-name="パス 7" d="M146.39,63.662a134.984,134.984,0,0,1-.9,18.76q-.172,1.49-2.02,1.489a2.791,2.791,0,0,1-1.569-.466,1.583,1.583,0,0,1-.753-1.3,14.275,14.275,0,0,1-7.65,1.908q-5.975-.186-8.92-3.351t-3.031-9.915q-.086-6.518,3.375-10.52a11.672,11.672,0,0,1,8.921-4.144,15.665,15.665,0,0,1,7.951,2.048q-.086-.977-.989-11.218a1.49,1.49,0,0,1,.559-1.4,2.475,2.475,0,0,1,1.591-.512q2.02,0,2.235,1.629a133.323,133.323,0,0,1,1.2,16.99m-4.3-.512a12.362,12.362,0,0,0-7.782-2.793,7.107,7.107,0,0,0-5.631,2.607,11.4,11.4,0,0,0-2.364,7.541q0,9.357,7.737,9.357,5.245,0,7.7-3.213a107.222,107.222,0,0,0,.345-13.5" transform="translate(56.793 26.525)" fill="#fff"/>
    <path id="パス_8" data-name="パス 8" d="M206.413,10.048c-19.838-17.1-39.787-9.317-52.027.8,0-.767.016-1.529.015-2.305a4.6,4.6,0,0,0-4.4-4.76h-.006a4.6,4.6,0,0,0-4.4,4.775c.056,42.856-9.9,71.087-29.582,83.906C85.894,112.078,41.069,90.3,32.046,85.54a26.764,26.764,0,0,1,9.122-4.84,4.035,4.035,0,0,0,2.464-4.945,3.627,3.627,0,0,0-4.565-2.668c-20.118,6.511-22.26,23.452-20.581,31.5a3.744,3.744,0,0,0,3.574,3.1,3.41,3.41,0,0,0,.811-.1,3.988,3.988,0,0,0,2.77-4.749,18.845,18.845,0,0,1,.919-9.606,149.817,149.817,0,0,0,32.161,12.9,105.1,105.1,0,0,0,27.3,3.906c13.235,0,24.913-3.144,34.509-9.386,10.74-6.986,18.944-17.691,24.589-32,3.326,1.822,8.391,3.338,16.111,3.338a87.616,87.616,0,0,0,17.593-2.031c19.44-4.014,34.768-16.666,38.145-31.486,2.374-10.417-1.373-20.509-10.553-28.421m2.006,26.137c-2.528,11.092-15.376,21.128-31.246,24.405-18.923,3.905-26.392.8-28.958-1.026a161.586,161.586,0,0,0,5.734-35.426C157.767,19.725,178.4-1.9,200.93,17.507c4.478,3.859,9.414,10.234,7.489,18.679" transform="translate(8.425 0)" fill="#fff"/>
  </g>
</svg>
